# xmcd
#
# Track frame offsets:
# 150
# 22884
# 43279
# 57726
# 91081
# 109699
# 128736
# 146985
# 161400
# 181064
# 200213
#
# Disc length: 2929 seconds
#
# Revision: 0
# Processed by: cddbd v1.5.2PL0 Copyright (c) Steve Scherf et al.
# Submitted via: Axialis_AX_CDPlayer 2.6
#
DISCID=9b0b6f0b
DTITLE=Waylon Jennings - Never Say Die: The Complete Final Concert [CD1 o
DTITLE=f \n2)
DYEAR=1900
DGENRE=
TTITLE0=Never Say Die
TTITLE1=Medley: Good Hearted Woman/Mamas Don't Let Your Babies Grow Up To Be
TTITLE1=Cowboys
TTITLE2=Trouble Man
TTITLE3=Medley: Amanda/A Couple More Years
TTITLE4=Waymore's Blues
TTITLE5=It's The World Gone Crazy (Cotillion)
TTITLE6=Love's The Only Chain
TTITLE7=I'm Not Lisa
TTITLE8=Storms Never Last
TTITLE9=Suspicious Minds
TTITLE10=Closing In On The Fire
EXTD=www.waylon.com
EXTT0=
EXTT1=
EXTT2=
EXTT3=
EXTT4=With John Anderson
EXTT5=
EXTT6=
EXTT7=Jessi Colter
EXTT8=With Jessi Colter
EXTT9=With Jessi Colter
EXTT10=
PLAYORDER=
